<svg width="1758" height="957" viewBox="0 0 1758 957" fill="none" xmlns="http://www.w3.org/2000/svg">
<path d="M1757.64 704.87V251.54C1750.11 53.81 1633.89 0 1485.91 0H1241.35C1104.95 0 995.46 45.73 973.39 207.7H1576.03V748.98H973.39C995.46 910.95 1105.22 956.68 1241.35 956.68H1485.91C1633.88 956.68 1750.11 902.62 1757.64 704.87Z" fill="black"/>
<path d="M0 251.81V705.14C7.53 902.87 123.75 956.68 271.73 956.68H516.29C652.69 956.68 762.18 910.95 784.25 748.98H181.6V207.7H784.24C762.17 45.73 652.41 0 516.28 0H271.73C123.75 0 7.53 54.06 0 251.81Z" fill="black"/>
<path d="M973.39 207.68H784.25V748.98H973.39V207.68Z" fill="#4EA62F"/>
</svg>
